<?xml version="1.0" encoding="utf-8"?>
<svg version="1.1" xmlns="http://www.w3.org/2000/svg" xmlns:xlink="http://www.w3.org/1999/xlink" x="0px" y="0px"
	viewBox="0 0 1000 1000" enable-background="new 0 0 1000 1000" xml:space="preserve">
	
	<path d="M922.1,216.6c-38.8-68.5-92-120.1-159.4-154.7S619.4,10,534.8,10c-109.1,0-202,24.6-278.5,73.6c-76.5,49-135.6,120-177.2,212.3c-34.1,75.3-51.1,154.6-51.1,237.8c0,74.7,14.3,144.2,43,208.6c22.9,50.8,56.7,95.8,101.8,134.9c45,39.1,99.5,68.3,163.4,87.7c63.9,19.4,132.6,28.8,208,23.7c82.7-5.5,101.2-13.8,169.9-25.7l-1.4-66.5C510.3,954,383,903.6,314.2,874.8c-68.8-28.8-120.4-73.3-156.8-133.6c-36.3-60.4-54.1-132.2-54.1-215.8c0-79.9,18.4-154.5,54.7-224.2c36.3-69.8,87.5-123.3,153.5-160.6s138.9-56.1,218.7-56.1c69.9,0,133.8,14.9,191.6,44.5c57.8,29.7,101.4,69.2,130.5,118.7c29.1,49.5,43.7,102.6,43.7,159.6c0,48.8-11.3,96.2-34,141.9c-22.7,45.9-53.4,82.4-92.3,109.7c-29.4,20.8-53,31.2-71.1,31.2c-9.9,0-18.4-3.4-25.3-10.1c-7-6.6-10.5-14.6-10.5-23.7c0-5.2,5.1-34.3,15.4-82.1l73.7-345.9h-91.5l-17.3,82.1c-19.4-31.7-42.6-54-69.6-69.5s-55.2-22.5-84.9-22.5c-38.8,0-78.9,14-120.2,41.3C326.9,287,292.4,328,264.6,382.5c-27.7,54.4-41.7,108.8-41.7,163c0,44,8.9,84.5,26.8,121.2c17.9,36.9,41.1,64.1,69.8,81.8c28.7,17.8,58.1,26.6,88.5,26.6c27.6,0,55.1-7.7,82.6-23.2c27.5-15.5,52.2-36.1,74.4-61.6c2.1,20.8,5.3,35.5,9.7,43.9c6.8,13.3,17.5,23.6,32,30.7c14.4,7.2,33.5,10.7,57.1,10.7c73.6,0,141.5-34.4,203.6-103.3c69.6-76.7,104.4-164.6,104.4-263.5C971.7,339.7,955.2,275.6,922.1,216.6z M595.2,545.8c-12.2,34.7-28.1,63.2-47.4,85.6c-19.3,22.5-39.4,39.5-60.6,50.8c-21.1,11.4-41.3,17.1-60.3,17.1c-28.7,0-54.1-12.9-76.2-38.8c-22.2-25.9-33.3-62.2-33.3-109c0-29.4,5.4-61.5,16.4-96.7c10.9-35.1,25.4-64.9,43.5-89.6c18-24.6,36.8-42.4,55.9-53.5c19.3-11.1,39.8-16.6,61.6-16.6c33.1,0,61.1,12.8,84.1,38.4c23,25.5,34.6,61.5,34.6,107.9C613.7,476.4,607.5,511.2,595.2,545.8z"/>
</svg>