<?xml version="1.0" encoding="iso-8859-1"?>
<svg xmlns="http://www.w3.org/2000/svg" x="0px" y="0px" viewBox="0 0 20.751 20.751">
	<path style="fill:#898989;"
		d="M20.725,6.322c-0.122-0.351-0.473-0.226-0.551,0.219c-0.275,1.568-0.803,4.624-1.084,6.099
		c-0.025,0.146-0.285,0.411-0.434,0.407c-2.441-0.084-10.607-0.191-10.607-0.191L5.347,5.048L5.194,4.522
		C5.167,4.451,5.141,4.385,5.126,4.345c-0.18-0.468-0.479-0.772-0.734-0.952c-0.252-0.18-0.461-0.246-0.49-0.254l-0.01-0.003
		L2.027,2.668c-0.125-0.257-0.52-0.446-0.99-0.446C0.465,2.222,0,2.5,0,2.84c0,0.342,0.465,0.62,1.037,0.62
		c0.186,0,0.357-0.032,0.51-0.084L3.602,3.89c0.033,0.012,0.154,0.062,0.289,0.163c0.15,0.117,0.32,0.293,0.428,0.573
		c0.143,0.373,0.903,2.48,1.625,4.481c0.361,1.002,0.713,1.981,0.976,2.709c0.229,0.643,0.392,1.09,0.427,1.186
		c0.006,0.033,0.023,0.128,0.022,0.238c0.001,0.118-0.019,0.25-0.071,0.353s-0.123,0.188-0.291,0.262
		c-0.521,0.229-0.826,0.739-0.83,1.267c-0.004,0.332,0.134,0.685,0.425,0.933c0.29,0.248,0.701,0.381,1.208,0.38
		c0.135,0,0.328,0.001,0.561,0.001l0.688,0.001c-0.582,0.185-1.006,0.723-1.006,1.366c0,0.795,0.643,1.439,1.439,1.439
		c0.795,0,1.439-0.644,1.439-1.439c0-0.642-0.423-1.179-1.004-1.364l0.686,0.001c0.966,0.002,2.06,0.004,3.118,0.007
		c0.739,0.001,1.46,0.003,2.108,0.004l0.637,0.002c-0.558,0.198-0.961,0.726-0.961,1.35c0,0.795,0.646,1.439,1.44,1.439
		c0.796,0,1.438-0.644,1.438-1.439c0-0.623-0.396-1.148-0.951-1.349l0.632,0.001c0.241,0,0.38,0,0.38,0c0.002,0,0.002,0,0.002,0
		c0.047,0,0.076,0,0.076,0c0.218,0,0.393-0.174,0.393-0.39c0.002-0.216-0.174-0.392-0.39-0.392c0,0-9.054-0.021-10.647-0.021
		c-0.377-0.001-0.586-0.096-0.695-0.19c-0.109-0.098-0.15-0.205-0.154-0.339c-0.004-0.214,0.146-0.462,0.355-0.547
		c0.335-0.138,0.564-0.384,0.686-0.636c0.059-0.12,0.094-0.239,0.117-0.353c0.072,0.017,0.146,0.029,0.225,0.03l10.254,0.209
		c0.01,0,0.014,0,0.019,0s0.01-0.002,0.013-0.002l0.047,0.002c0.011,0,0.016,0,0.02,0c0.229,0,0.439-0.082,0.605-0.215
		c0.164-0.133,0.293-0.324,0.332-0.557l0.999-5.94c0.013-0.074,0.019-0.147,0.019-0.218C20.725,6.741,20.782,6.463,20.725,6.322z"/>
	<path style="fill:#898989;"
		d="M12.789,11.159c0.278,0.279,0.734,0.279,1.012,0l3.996-3.996c0.28-0.278,0.186-0.507-0.209-0.507
		h-1.836c-0.393,0-0.715-0.322-0.715-0.715V2.225c0-0.395-0.324-0.717-0.718-0.717h-2.05c-0.393,0-0.717,0.322-0.717,0.717v3.716
		c0,0.394-0.32,0.715-0.715,0.715H9.002c-0.394,0-0.489,0.229-0.21,0.507C8.792,7.163,12.789,11.159,12.789,11.159z"/>
</svg>