<?xml version="1.0" encoding="UTF-8" standalone="no"?>
<svg xmlns="http://www.w3.org/2000/svg" x="0px" y="0px" viewBox="0 0 300 300">
	<path style="fill:#898989;fill-opacity:1"
        d="M231.962,62.5H118.037c-20.287,0-36.8,16.5-36.8,36.781v113.938c0,20.281,16.513,36.781,36.8,36.781h113.919     c20.288,0,36.794-16.5,36.794-36.781V99.281C268.75,79,252.244,62.5,231.962,62.5z M256.269,213.219     c0,13.388-10.9,24.281-24.3,24.281H118.044c-13.4,0-24.294-10.894-24.294-24.281V99.281C93.75,85.894,104.644,75,118.044,75     h113.925c13.4,0,24.3,10.894,24.3,24.281V213.219z"/>
	<path style="fill:#898989;fill-opacity:1"
        d="M206.962,87.5h-63.925c-20.287,0-36.8,16.5-36.8,36.781v51.438c0,20.281,16.513,36.781,36.8,36.781h63.919     c20.288,0,36.794-16.5,36.794-36.781v-51.438C243.75,104,227.244,87.5,206.962,87.5z M231.269,175.719     c0,13.388-10.9,24.281-24.3,24.281h-63.925c-13.4,0-24.294-10.894-24.294-24.281v-51.438c0-13.388,10.894-24.281,24.294-24.281     h63.925c13.4,0,24.3,10.894,24.3,24.281V175.719z"/>
	<path style="fill:#898989;fill-opacity:1"
        d="M199.85,123.638c-0.544-2.5-2.575-4.413-5.1-4.819c-2.588-0.412-5.044,0.763-6.362,2.956l-15.381,25.638l-13.294-8.862     c-1.5-0.994-3.381-1.306-5.1-0.831c-1.75,0.469-3.2,1.662-3.994,3.294l-18.263,37.5c-0.938,1.938-0.819,4.225,0.331,6.05     c1.144,1.825,3.138,2.938,5.3,2.938h68.263c1.906,0,3.688-0.862,4.875-2.344c1.175-1.494,1.625-3.419,1.225-5.269L199.85,123.638     z M147.987,175l10.744-22.081l12.8,8.531c1.425,0.956,3.138,1.287,4.831,0.906c1.675-0.381,3.112-1.425,3.994-2.881     l10.688-17.825l7.419,33.35H147.987z"/>
	<path style="fill:#898989;fill-opacity:1"
		d="M253.344,0H59.975C46.05,0,31.25,7.888,31.25,22.5V75H12.5c-3.456,0-6.25,2.794-6.25,6.25s2.794,6.25,6.25,6.25h18.75v25     H12.5c-3.456,0-6.25,2.794-6.25,6.25S9.044,125,12.5,125h18.75v25H12.5c-3.456,0-6.25,2.794-6.25,6.25s2.794,6.25,6.25,6.25     h18.75v25H12.5c-3.456,0-6.25,2.794-6.25,6.25S9.044,200,12.5,200h18.75v25H12.5c-3.456,0-6.25,2.794-6.25,6.25     s2.794,6.25,6.25,6.25h18.75v34.231c0,14,14.5,28.269,28.725,28.269h193.369c25.294,0,40.406-23.712,40.406-46.631V40.856     C293.75,16.8,277.138,0,253.344,0z M281.25,253.369c0,16.787-10.438,34.131-27.906,34.131H59.975     c-7.275,0-16.225-8.694-16.225-15.769V237.5H62.5c3.456,0,6.25-2.794,6.25-6.25S65.956,225,62.5,225H43.75v-25H62.5     c3.456,0,6.25-2.794,6.25-6.25s-2.794-6.25-6.25-6.25H43.75v-25H62.5c3.456,0,6.25-2.794,6.25-6.25S65.956,150,62.5,150H43.75     v-25H62.5c3.456,0,6.25-2.794,6.25-6.25s-2.794-6.25-6.25-6.25H43.75v-25H62.5c3.456,0,6.25-2.794,6.25-6.25S65.956,75,62.5,75     H43.75V22.5c0-6.819,9.681-10,16.225-10h193.369c16.95,0,27.906,11.131,27.906,28.356V253.369z"/>
		   
	<path style="fill:#898989;fill-opacity:1"
		d="m 54.652787,298.57651 c -6.124374,-1.89845 -11.087383,-5.09363 -15.216328,-9.79624 -6.875529,-7.8308 -7.656798,-11.11779 -7.656798,-32.21402 l 0,-19.10862 -9.617467,0 c -12.9698027,0 -17.71963,-2.94791 -14.4857916,-8.99039 1.1452162,-2.13987 2.7551186,-2.45029 12.7073056,-2.45029 l 11.395953,0 0,-13.34746 0,-13.34746 -10.608066,0 c -8.947781,0 -10.963558,-0.39281 -12.879406,-2.5098 -2.1269414,-2.35025 -2.1376036,-2.71391 -0.1677134,-5.72034 1.9757194,-3.01533 2.7588204,-3.21053 12.8794054,-3.21053 l 10.77578,0 0,-12.71187 0,-12.71186 -9.429932,0 c -5.186461,0 -10.350658,-0.35332 -11.475991,-0.78515 -3.2457277,-1.2455 -4.8185644,-5.17595 -3.2466194,-8.11316 1.2053015,-2.25212 2.6616404,-2.54237 12.7565894,-2.54237 l 11.395953,0 0,-13.34746 0,-13.34746 -10.608066,0 c -8.947781,0 -10.963558,-0.39281 -12.879406,-2.5098 -2.1269414,-2.35024 -2.1376036,-2.7139 -0.1677134,-5.72034 1.9757194,-3.01533 2.7588204,-3.21053 12.8794054,-3.21053 l 10.77578,0 0,-12.71187 0,-12.711863 -9.617467,0 c -12.9698027,0 -17.71963,-2.94791 -14.4857916,-8.990392 1.1452162,-2.139857 2.7551186,-2.450286 12.7073056,-2.450286 l 11.395953,0 0,-28.652336 c 0,-33.516827 0.657932,-36.011207 11.120739,-42.161467 l 6.040278,-3.5506036 108.686442,0 108.68644,0 6.77888,3.7550217 c 8.05504,4.461926 12.17487,9.0445189 16.62346,18.4907409 l 3.29257,6.991526 0.36552,110.593219 c 0.24196,73.20655 -0.0887,113.52275 -0.97815,119.25904 -1.71847,11.08303 -7.13474,21.77888 -14.43717,28.51003 -11.47828,10.5803 -2.71243,9.82978 -117.78918,10.08506 -56.28178,0.12483 -103.764295,-0.21744 -105.516703,-0.76067 z M 261.08133,286.74173 c 6.82608,-2.03958 14.99535,-10.28418 18.05929,-18.22584 2.30134,-5.96503 2.43635,-11.68021 2.77474,-117.45229 0.23875,-74.624232 -0.0866,-113.312658 -0.98941,-117.661552 -1.64787,-7.93767 -7.42787,-15.316012 -14.52247,-18.538303 -4.89748,-2.224388 -10.76517,-2.351777 -109.54177,-2.3782 l -104.367092,-0.02792 -4.319343,2.909808 -4.319343,2.909808 -0.341662,28.869853 -0.341663,28.869853 11.419819,0 c 9.975754,0 11.585643,0.309844 12.731171,2.450286 3.233839,6.042482 -1.515989,8.990392 -14.485791,8.990392 l -9.617467,0 0,12.711863 0,12.71187 10.77578,0 c 10.120585,0 10.903686,0.1952 12.879406,3.21053 1.96989,3.00644 1.959227,3.3701 -0.167714,5.72034 -1.915847,2.11699 -3.931625,2.5098 -12.879406,2.5098 l -10.608066,0 0,13.34746 0,13.34746 11.395953,0 c 10.09495,0 11.551289,0.29025 12.756589,2.54237 1.571946,2.93721 -8.91e-4,6.86766 -3.246619,8.11316 -1.125334,0.43183 -6.28953,0.78515 -11.475991,0.78515 l -9.429932,0 0,12.71186 0,12.71187 10.77578,0 c 10.120585,0 10.903686,0.1952 12.879406,3.21053 1.96989,3.00643 1.959227,3.37009 -0.167714,5.72034 -1.915847,2.11699 -3.931625,2.5098 -12.879406,2.5098 l -10.608066,0 0,13.34746 0,13.34746 11.395953,0 c 10.09495,0 11.551289,0.29025 12.756589,2.54237 1.571946,2.93721 -8.91e-4,6.86766 -3.246619,8.11316 -1.125334,0.43183 -6.28953,0.78515 -11.475991,0.78515 l -9.429932,0 0,18.87981 c 0,17.49006 0.210536,19.18824 2.860169,23.06999 1.573094,2.3046 4.853364,5.24935 7.289489,6.54391 4.20176,2.23282 9.516837,2.35374 103.454213,2.35374 74.67032,0 100.31173,-0.38449 104.25712,-1.56335 z"/>
	<path style="fill:#898989;fill-opacity:1"
		d="M 103.72881,246.25846 C 96.767968,243.11409 89.210495,236.03713 85.506694,229.19492 82.80045,224.19554 82.748158,223.01343 82.392164,158.78759 81.97363,83.278608 81.747082,85.12101 92.810924,74.057167 103.77496,63.093135 102.15648,63.305085 174.91525,63.305085 c 70.16919,0 70.07554,-0.0099 79.9455,8.43843 2.88306,2.467784 6.81097,7.156016 8.72872,10.418293 l 3.4868,5.931412 0.36531,66.1017 c 0.32936,59.59585 0.15348,66.65736 -1.78702,71.74747 -2.90018,7.60752 -11.17352,16.33607 -18.91727,19.95814 l -6.35593,2.97294 -65.46611,-0.0155 c -63.07641,-0.0149 -65.67491,-0.10983 -71.18644,-2.59952 l 0,2e-5 z m 132.23575,-8.80697 c 8.09669,-1.53551 14.35002,-6.01329 17.77599,-12.72872 2.427,-4.75733 2.53064,-7.56748 2.53064,-68.62108 0,-61.359539 -0.0928,-63.842511 -2.56748,-68.693287 -1.41213,-2.767977 -4.94557,-6.606417 -7.8521,-8.529867 l -5.28458,-3.49718 -65.65178,0 -65.65176,0 -5.15571,3.411885 c -3.10576,2.055297 -6.227805,5.626542 -7.852082,8.981853 -2.636902,5.447112 -2.696376,6.964423 -2.696376,68.791076 0,55.76633 0.242915,63.70081 2.060071,67.28933 3.958309,7.81687 9.402207,11.89205 18.278917,13.68319 7.08078,1.42876 114.47716,1.35205 122.06625,-0.0872 z"/>
	<path style="fill:#898989;fill-opacity:1"
		d="m 131.45148,209.75558 c -10.77803,-3.79571 -18.64832,-11.68078 -22.3515,-22.39351 -3.2346,-9.35721 -3.38282,-64.54298 -0.19982,-74.39856 2.71386,-8.403 10.09633,-16.771208 18.48223,-20.95008 l 6.59137,-3.284616 40.74617,0.01242 c 40.22258,0.01226 40.82785,0.05114 47.1021,3.026018 7.72969,3.664952 14.86657,10.89408 18.33473,18.57173 2.38129,5.27156 2.58621,8.30175 2.61193,38.62371 0.0177,20.85863 -0.49774,34.65787 -1.40806,37.69626 -2.22352,7.42142 -9.84588,16.41351 -17.63182,20.80022 l -6.99152,3.93914 -39.40678,0.3183 c -35.15422,0.28395 -40.10523,0.0723 -45.87903,-1.96103 z m 85.28581,-11.57236 c 5.91831,-2.74009 11.34437,-8.15723 13.26659,-13.24479 0.82367,-2.18002 1.35205,-15.98552 1.35205,-35.32606 0,-29.18987 -0.20387,-32.14718 -2.53064,-36.70801 -3.20299,-6.27838 -9.18996,-10.86362 -16.62441,-12.73214 -3.88918,-0.977474 -17.32627,-1.323981 -40.67797,-1.048977 -33.40885,0.393444 -35.09675,0.531586 -40.27149,3.295937 -2.97062,1.5869 -6.97486,5.26162 -8.89831,8.16603 l -3.49718,5.28075 -0.40251,31.24075 c -0.43423,33.70344 0.11873,37.97624 5.78633,44.71181 6.96593,8.27853 9.5188,8.71886 50.54839,8.71886 33.2041,0 37.36927,-0.23374 41.94915,-2.35416 z"/>
	<path style="fill:#898989;fill-opacity:1"
		d="m 134.49153,185.08475 c -2.73803,-2.73803 -1.55767,-6.46302 8.37835,-26.44068 7.7083,-15.49855 10.38974,-19.78743 12.5649,-20.09717 1.58247,-0.22534 5.76141,1.59554 9.76983,4.25698 3.8525,2.55791 7.54209,4.31852 8.19909,3.91247 0.65701,-0.40605 3.63257,-4.89584 6.61235,-9.97731 9.96926,-17.00071 13.77258,-20.4243 17.58564,-15.82984 0.76315,0.91955 4.37074,15.17786 8.01686,31.68513 5.54724,25.11431 6.3582,30.33989 4.96837,32.01453 -1.44059,1.73582 -6.49697,2.00131 -38.11545,2.00131 -26.6586,0 -36.86443,-0.40991 -37.97994,-1.52542 z m 63.9534,-12.77543 c -0.36922,-1.57309 -2.05204,-9.06069 -3.7396,-16.6391 -1.68755,-7.57841 -3.28275,-13.9934 -3.54487,-14.25552 -0.26212,-0.26213 -3.02347,3.84195 -6.13632,9.12017 -7.11206,12.05936 -8.83102,13.09903 -14.9796,9.06002 -2.56475,-1.68479 -6.20659,-4.06438 -8.09298,-5.28798 l -3.4298,-2.22473 -5.15071,10.24425 c -2.83289,5.63434 -5.15071,10.82899 -5.15071,11.54366 0,0.84181 8.9617,1.2994 25.44795,1.2994 l 25.44794,0 -0.6713,-2.86017 z"/>
</svg>