<svg width="1000" height="1000" xmlns="http://www.w3.org/2000/svg">
	<path d="m421.78218,11.469991c-59.350001,2.87 -103.570002,13.78 -154.300002,38.290001c-139.360002,67.200001 -237.760004,225.700003 -253.650004,408.720006c-9.76,113.520002 25.27,245.420004 91.890001,345.920005c70.640001,106.250002 170.000003,168.650003 289.260004,181.290003c9.95,1.15 52.260001,2.49 93.800001,3.25c70.640001,1.15 77.530001,0.96 106.250002,-2.87c48.820001,-6.7 75.810001,-13.02 115.820002,-27.38c160.040002,-57.810001 262.650004,-210.000003 279.690004,-415.030006c10.72,-129.600002 -30.44,-272.610004 -107.780002,-375.600006c-67.000001,-88.830001 -157.170002,-141.660002 -264.760004,-154.680002c-21.82,-2.67 -154.480002,-4.01 -196.220003,-1.91z
			 m187.040003,37.330001c78.680001,11.1 146.830002,44.990001 206.180003,102.420002c160.040002,154.490002 187.220003,426.140006 62.210001,619.490009c-59.150001,91.700001 -142.620002,152.580002 -237.760004,173.830003c-75.430001,17.04 -152.190002,8.04 -223.220003,-25.84c-84.230001,-40.200001 -152.000002,-112.950002 -195.650003,-209.430003c-75.810001,-167.120002 -55.130001,-367.170005 52.070001,-509.410008c64.130001,-85.000001 157.930002,-140.900002 254.420004,-151.810002c22.98,-2.69 60.690001,-2.31 81.750001,0.75z
			 m-196.990003,5.75c-0.57,0.57 -8.04,4.59 -16.85,8.81c-15.51,7.47 -16.08,7.47 -30.44,6.32c-23.74,-2.11 -23.93,-3.45 -1.91,-8.23c10.91,-2.3 26.42,-4.79 34.270001,-5.74s14.74,-1.72 15.12,-1.91c0.38,-0.02 0.38,0.17 -0.19,0.75z
			 m-77.720001,27.75c10.34,0.96 19.14,1.91 19.72,1.91c0.77,0 -5.36,4.4 -13.21,9.76l-14.74,9.76l-28.14,-3.06c-15.51,-1.72 -28.91,-3.06 -30.06,-3.25c-0.96,0 6.7,-4.4 17.23,-9.38c13.78,-6.89 20.67,-9.19 24.89,-8.62c3.25,0.59 14.16,1.74 24.31,2.88z
			 m-46.710001,32.74c10.72,1.34 19.34,2.87 19.14,3.45c-0.38,0.58 -5.55,5.74 -11.49,11.49l-10.91,10.15l-35.030001,-4.02c-19.14,-2.3 -35.030001,-4.4 -35.220001,-4.59c-0.38,-0.38 6.13,-5.17 14.17,-10.72l14.74,-10.15l12.44,1.15c6.89,0.56 21.24,2.09 32.16,3.24z
			 m-47.860001,35.420001c15.89,1.91 29.1,3.83 29.1,4.4c-0.19,0.58 -4.59,6.13 -10.15,12.25l-9.96,11.1l-33.5,-4.02c-48.050001,-5.74 -44.800001,-3.83 -31.4,-17.42c10.72,-11.1 11.68,-11.49 18.95,-10.53c4.22,0.39 20.88,2.49 36.960001,4.22z
			 m-38.860001,37.330001c18.95,2.3 34.840001,4.4 35.220001,4.79c0.38,0.38 -2.49,5.55 -6.51,11.29c-5.55,8.23 -8.23,10.53 -12.25,10.53c-6.7,0 -75.040001,-9 -76.000001,-10.15c-0.57,-0.38 3.25,-5.55 8.23,-11.49c6.7,-8.04 9.95,-10.53 12.83,-9.96c2.29,0.39 19.52,2.69 38.480001,4.99z
			 m-26.04,37.130001c19.33,2.68 35.610001,4.98 35.990001,5.55c0.38,0.38 -2.87,7.28 -7.27,15.32c-6.7,11.87 -8.81,14.36 -12.06,13.59c-2.3,-0.57 -21.25,-3.25 -42.310001,-5.93c-21.06,-2.87 -38.670001,-5.36 -38.860001,-5.55c-0.38,-0.38 3.64,-7.08 8.81,-14.93c8.61,-12.63 10.15,-13.97 15.12,-13.4c2.87,0.38 21.24,2.87 40.580001,5.35z
			 m-24.12,44.230001c20.87,2.87 37.520001,5.74 37.330001,6.51c-11.1,25.84 -13.97,30.63 -18,30.63c-5.74,0 -83.660001,-11.29 -84.610001,-12.25c-0.38,-0.58 2.87,-7.85 7.47,-16.46c8.04,-14.93 8.61,-15.51 14.17,-14.55c3.05,0.56 22.77,3.24 43.640001,6.12z
			 m15.89,52.450001c3.45,0 -5.93,27.57 -9.38,28.33c-2.87,0.58 -79.450001,-10.34 -86.150001,-12.25c-3.83,-1.15 -3.45,-3.45 3.45,-19.14l4.4,-9.76l42.690001,6.32c23.55,3.63 43.840001,6.5 44.990001,6.5z
			 m-56.090001,37.520001c24.5,3.83 44.600001,6.89 44.800001,7.08c0.19,0.19 -1.15,6.89 -3.06,14.74c-2.68,12.25 -3.83,14.36 -6.89,13.97c-13.02,-1.72 -89.980001,-14.17 -90.550001,-14.74c-1.34,-1.53 7.47,-27.95 9.38,-27.95c1.14,0.01 22.01,3.07 46.320001,6.9z
			 m35.410001,51.500001c0.58,0.57 -3.25,28.33 -4.21,29.1c-0.38,0.38 -22.21,-2.87 -48.620001,-7.27c-45.940001,-7.66 -48.050001,-8.23 -47.290001,-12.06c0.38,-2.3 1.72,-8.81 2.87,-14.74l2.11,-10.53l47.280001,7.66c26.04,4.01 47.480001,7.65 47.860001,7.84z
			 m-5.74,44.980001c0.19,0 0.38,6.89 0.38,15.32c0,13.21 -0.38,15.31 -3.25,15.31c-1.91,0 -24.31,-3.64 -49.770001,-8.04l-46.520001,-8.04l0,-6.89c0,-4.02 0.57,-10.91 1.15,-15.7l1.15,-8.62l48.240001,8.23c26.41,4.61 48.240001,8.43 48.620001,8.43z
			 m-24.5,42.890001l23.93,4.21l0.57,12.83c0.38,8.42 -0.19,12.83 -1.53,12.83c-1.15,0 -23.36,-3.83 -49.390001,-8.61c-25.85,-4.8 -47.860001,-8.63 -48.630001,-8.63c-0.77,0 -1.53,-5.93 -1.53,-13.21l0,-13.02l26.42,4.59c14.36,2.69 36.950001,6.71 50.160001,9.01z
			 m-24.12,36.750001c26.42,4.98 48.620001,9.38 49.390001,10.15c0.77,0.57 1.91,6.32 2.49,12.83l1.34,11.68l-51.310001,-9.57c-28.33,-5.36 -51.690001,-9.76 -51.690001,-9.76c-0.19,-0.19 -0.77,-5.55 -1.53,-12.25c-0.96,-8.61 -0.77,-11.87 0.96,-11.87c1.34,-0.01 23.93,4.01 50.350001,8.79z
			 m5.74,40.970001c27.18,5.17 49.580001,9.76 49.770001,9.96c1.15,1.72 6.7,31.01 6.13,31.78c-0.77,0.77 -102.420002,-18.57 -104.720002,-19.91c-0.77,-0.38 -1.91,-4.79 -2.49,-9.76c-0.77,-5.17 -1.91,-12.06 -2.49,-15.5c-0.77,-4.4 -0.19,-6.13 1.53,-6.13c1.54,-0.01 24.89,4.2 52.270001,9.56z
			 m8.42,48.620001c28.72,5.55 52.450001,10.53 52.650001,10.91c1.53,2.3 8.81,27.57 8.04,28.14c-0.57,0.77 -106.630002,-20.48 -107.780002,-21.63c-1.53,-1.34 -7.47,-27.76 -6.51,-27.76c0.77,0.01 24.89,4.6 53.600001,10.34z
			 m67.390001,57.820001c1.72,1.91 11.68,26.03 10.91,26.8c-0.77,0.96 -109.500002,-22.4 -110.650002,-23.74c-1.53,-1.53 -9.38,-22.78 -9.38,-25.08c0,-1.91 106.820002,19.72 109.120002,22.02z
			 m-33.700001,33.31c29.29,6.13 53.410001,11.68 53.790001,11.87c3.06,4.4 16.27,30.82 15.89,31.4c-0.77,0.57 -102.420002,-20.68 -111.030002,-23.36c-2.49,-0.77 -16.85,-26.61 -16.85,-30.44c0.01,-1.72 5.37,-0.77 58.200001,10.53z
			 m91.320001,75.620001c4.98,7.27 9,13.4 8.81,13.78c-0.38,0.19 -26.8,-5.36 -58.770001,-12.64l-58.390001,-13.02l-8.04,-12.25c-4.59,-6.7 -8.23,-12.83 -8.23,-13.4s26.04,4.59 57.620001,11.68l57.620001,12.63l9.38,13.22z
			 m-31.21,20.86c55.520001,12.63 56.090001,12.63 62.030001,19.33c9.76,11.29 13.4,16.27 11.68,16.27c-0.96,0 -27.95,-5.93 -59.920001,-13.4l-58.390001,-13.21l-9,-10.15c-9.76,-10.91 -11.1,-13.78 -5.74,-12.25c1.72,0.59 28.52,6.52 59.340001,13.41z
			 m37.330001,43.270001l59.160001,13.59l14.93,12.83c8.23,7.08 14.74,13.02 14.55,13.21c0,0 -28.52,-6.51 -63.170001,-14.55l-62.790001,-14.74l-13.78,-12.83c-7.47,-7.08 -12.25,-12.44 -10.72,-11.87c1.52,0.38 29.47,6.89 61.820001,14.36z
			 m63.560001,48.620001l55.520001,12.25l21.06,12.64c11.49,6.89 20.29,12.63 19.53,12.63c-0.77,0 -28.14,-5.55 -60.880001,-12.44l-59.730001,-12.44l-18.38,-10.72c-10.15,-5.74 -20.48,-12.25 -23.16,-14.17l-4.79,-3.64l7.66,1.91c4.21,0.96 32.73,7.28 63.170001,13.98z"/>
	<g transform="matrix(0.7585447303150276,0,0,0.950680247348395,-15853.412313297626,-20434.62145986026)">
		<path stroke="black" stroke-width="20" 
			d ="m21574.981494,21710.421164l-4.546485,6.52092l0,153.003388l0,152.731116l-13.648948,0c-12.19673,0 -14.379803,0.775976 -18.204925,6.52092c-6.008195,8.358758 -6.188536,21.672871 -0.360682,29.500698c3.644782,4.955355 6.368876,5.744944 18.204925,5.744944l14.019121,0l0,32.631829l0,32.631829l-13.468607,0c-10.735021,0 -14.199462,1.048248 -18.204925,5.486286c-6.368876,7.31051 -6.549217,20.883281 -0.180341,29.759356c3.825122,5.744944 6.008195,6.52092 18.204925,6.52092l13.648948,0l0,73.105098l0,73.363756l4.546485,6.262262c5.827854,8.617417 14.199462,8.617417 20.027316,0l4.546485,-6.262262l0,-73.363756l0,-73.105098l68.985086,0l69.174919,0l4.916659,-6.003603c6.729558,-8.617417 6.729558,-21.155553 0,-29.759356l-4.916659,-6.003603l-69.174919,0l-68.985086,0l0,-32.631829l0,-32.631829l56.057501,0c50.058798,0 57.699551,-0.517317 70.266455,-5.227627c65.349796,-24.014412 107.93869,-121.923511 93.017865,-214.087666c-9.643485,-58.22542 -43.870263,-111.223212 -85.547961,-132.365152l-14.560143,-7.31051l-69.5356,-0.78959l-69.715941,-0.78959l-4.565469,6.548147l0.000001,0.000002z
				m147.623149,40.731928c18.015093,6.793193 30.942678,17.75215 44.411285,38.376773c17.113389,26.110908 25.484997,57.43583 25.484997,95.553944c0,54.304699 -19.657143,101.298889 -51.511016,122.971759c-19.837484,13.314113 -26.937214,14.62102 -86.82933,14.62102l-54.605284,0l0,-138.368755l0,-138.368755l54.244602,0c48.597089,-0.013614 55.886652,0.517317 68.804746,5.214013l0,0.000001z" id="svg_8" transform="rotate(-7.005145072937012 21677.896484375033,22017.269531250004)"/>
	</g>
</svg>