<?xml version="1.0" encoding="UTF-8" standalone="no"?>
<svg xmlns="http://www.w3.org/2000/svg" width="376.98483" height="376.98483">
  <g transform="matrix(0.82087064,0,0,0.82087064,-107.30318,-18.803068)">
    <path style="color:#000000;display:inline;overflow:visible;visibility:visible;fill:#000000;stroke:none;stroke-width:1;marker:none;enable-background:accumulate"
          d="m 360.34375,22.90625 c -126.51507,0 -229.625,103.10993 -229.625,229.625 0,126.51507 103.10993,229.625 229.625,229.625 126.51507,0 229.625,-103.10993 229.625,-229.625 0,-126.51507 -103.10993,-229.625 -229.625,-229.625 z"/>
    <path style="color:#000000;display:inline;overflow:visible;visibility:visible;fill:#ffffff;stroke:none;stroke-width:1;marker:none;enable-background:accumulate"
          d="m 563.92828,252.52121 c 0,112.4429 -91.15298,203.59589 -203.59588,203.59589 -112.44291,0 -203.59589,-91.15299 -203.59589,-203.59589 0,-112.4429 91.15298,-203.595887 203.59589,-203.595887 112.4429,0 203.59588,91.152987 203.59588,203.595887 z"/>
  </g>
  <g transform="matrix(0.17364818,0.98480775,-0.98480775,0.17364818,381.68535,-203.71815)">
    <path style="fill:#000000"
          d="m 413.03146,370.50198 c 10.4561,-3.25844 21.8697,-7.68203 25.71185,-9.96512 2.58149,-1.53404 2.94537,-2.05119 2.05217,-2.91639 -6.47168,-6.26874 -51.999,-46.15755 -52.39964,-45.90994 -0.29368,0.1815 -1.03688,3.02487 -1.65156,6.3186 -1.21331,6.50146 -2.35644,7.98919 -6.13721,7.98735 -3.11302,-0.002 -5.16592,-1.74561 -8.15,-6.92399 -1.30084,-2.25739 -3.40394,-5.43499 -4.67356,-7.06134 -1.26961,-1.62634 -3.83544,-5.68965 -5.70183,-9.02958 -1.86639,-3.33992 -5.14643,-8.84303 -7.28898,-12.22912 -4.91165,-7.76241 -10.6271,-17.22565 -12.78908,-21.17528 -0.91535,-1.67222 -3.17378,-5.08058 -5.01874,-7.57414 -1.84495,-2.49356 -4.19717,-6.18748 -5.22715,-8.20871 -1.03,-2.02123 -3.98259,-6.81479 -6.56133,-10.65236 -2.57873,-3.83757 -5.67735,-8.92901 -6.88582,-11.31429 -1.20846,-2.38529 -3.42766,-6.2639 -4.93156,-8.61915 -3.45802,-5.41553 -7.48414,-13.4637 -8.17982,-16.35138 -0.42409,-1.76036 -0.067,-2.65867 1.72881,-4.34861 2.42139,-2.27869 2.5806,-2.27802 10.28427,0.043 2.6056,0.78504 4.90634,1.25846 5.11275,1.05206 0.37117,-0.37118 -17.25847,-68.70015 -17.88778,-69.32946 -0.46204,-0.46204 -21.10335,16.87437 -21.10335,17.72447 0,0.38544 -1.79655,2.48844 -3.99234,4.67333 -2.19579,2.18489 -5.31202,6.06681 -6.92496,8.62649 -2.54264,4.03509 -3.05335,5.72703 -3.84059,12.7235 -2.49868,22.20662 3.3589,55.03494 14.47555,81.12702 5.98455,14.04643 9.58003,21.08751 13.8305,27.0844 1.92168,2.71125 4.50761,6.96121 5.74651,9.44434 6.65606,13.34072 27.63273,37.66303 42.27063,49.01251 10.10132,7.83204 31.53654,21.83905 36.49072,23.84517 14.48876,5.86693 18.30763,6.10186 31.64154,1.94661 z
             m 36.95195,-25.17301 c 3.14076,-7.71902 3.22869,-8.16983 1.84769,-9.47272 -1.16702,-1.10098 -37.94811,-33.12799 -43.02409,-37.46307 -1.18625,-1.0131 -2.37875,-0.63862 -9.75737,3.06415 -7.07892,3.55237 -8.22627,4.39141 -7.26773,5.31476 3.50157,3.37303 54.46741,47.09799 54.66599,46.89942 0.13079,-0.13077 1.72178,-3.88494 3.53551,-8.34254 z
             M 336.92909,197.7094 c 3.4806,-2.65071 6.31817,-4.86706 6.30569,-4.92524 -0.94376,-4.40032 -14.69872,-58.19647 -14.94236,-58.44012 -0.47194,-0.47193 -18.0298,-2.93409 -18.38565,-2.57824 -0.22266,0.22266 4.59741,18.85807 17.83038,68.93616 0.93751,3.54785 0.35466,3.73761 9.19194,-2.99256 z"/>
  </g>
</svg>
