<?xml version="1.0" encoding="iso-8859-1"?>
<svg xmlns="http://www.w3.org/2000/svg" x="0px" y="0px" width="20.75px" height="20.75px" viewBox="0 0 20.75 20.75">
	<path style="fill:#898989;"
		d="M20.729,6.897c0,0.071-0.006,0.144-0.02,0.218l-0.999,5.939c-0.039,0.234-0.168,0.426-0.332,0.557
		c-0.166,0.133-0.376,0.215-0.604,0.215c-0.004,0-0.01,0-0.021,0h-0.047c-0.003,0-0.008,0-0.013,0c-0.004,0-0.01,0-0.02,0
		L8.42,13.616c-0.079-0.002-0.151-0.012-0.225-0.03C8.173,13.7,8.137,13.819,8.078,13.94c-0.122,0.25-0.351,0.496-0.686,0.637
		c-0.209,0.085-0.359,0.33-0.355,0.547c0.004,0.134,0.045,0.24,0.154,0.338c0.109,0.095,0.318,0.189,0.696,0.189
		c1.593,0,10.646,0.021,10.646,0.021c0.217,0.001,0.393,0.176,0.391,0.393c0,0.217-0.175,0.392-0.392,0.392c0,0-0.03,0-0.077,0
		c0,0-0.139,0-0.382,0l-0.632-0.002c0.555,0.202,0.953,0.726,0.953,1.35c0,0.795-0.646,1.438-1.439,1.438s-1.439-0.644-1.439-1.438
		c0-0.626,0.401-1.153,0.959-1.353l-0.638-0.002c-0.647,0-1.368-0.002-2.106-0.004c-1.06-0.002-2.151-0.004-3.119-0.006H9.927
		c0.58,0.184,1.003,0.721,1.003,1.363c0,0.795-0.645,1.438-1.439,1.438c-0.794,0-1.439-0.643-1.439-1.438
		c0-0.643,0.424-1.182,1.007-1.367H8.37c-0.232,0-0.425,0-0.56,0c-0.506,0-0.919-0.133-1.209-0.381
		c-0.289-0.249-0.428-0.604-0.424-0.933c0.004-0.529,0.309-1.038,0.83-1.267c0.168-0.076,0.237-0.16,0.291-0.265
		c0.052-0.103,0.074-0.235,0.072-0.353c0.002-0.11-0.017-0.207-0.023-0.238c-0.035-0.096-0.197-0.543-0.426-1.186
		c-0.264-0.729-0.616-1.707-0.977-2.708C5.223,7.105,4.463,4.998,4.319,4.626C4.211,4.347,4.042,4.17,3.891,4.054
		C3.756,3.952,3.634,3.902,3.603,3.89L1.547,3.375C1.394,3.428,1.223,3.459,1.036,3.459C0.465,3.459,0,3.182,0,2.84
		c0-0.341,0.465-0.619,1.036-0.619c0.471,0,0.866,0.191,0.991,0.448l1.865,0.465l0.012,0.004c0.027,0.01,0.236,0.074,0.488,0.255
		c0.254,0.18,0.555,0.484,0.734,0.951c0.015,0.04,0.041,0.108,0.068,0.179L5.348,5.05l2.701,7.807c0,0,8.166,0.106,10.607,0.188
		c0.15,0.007,0.408-0.261,0.434-0.406c0.281-1.476,0.809-4.532,1.084-6.099c0.079-0.446,0.43-0.57,0.551-0.219
		C20.781,6.461,20.725,6.739,20.729,6.897z M10.838,6.218c0.395,0,0.717,0.322,0.717,0.716v3.718c0,0.395,0.322,0.715,0.717,0.715
		h2.049c0.394,0,0.718-0.32,0.718-0.715V6.934c0-0.394,0.319-0.716,0.715-0.716h1.836c0.396,0,0.488-0.229,0.209-0.508l-3.997-3.994
		c-0.275-0.279-0.732-0.279-1.011,0L8.796,5.71C8.515,5.989,8.61,6.218,9.005,6.218H10.838z"/>
</svg>