<svg xmlns="http://www.w3.org/2000/svg" width="82" height="21">
	<!-- Чтобы заливка была не внутри звезд, а снаружи, необходимо внешнюю рамку и внутренние звезды рисовать в противоположных направлениях часовой стрелки -->
	<path fill="white" stroke="#666" id="svg_1" class="" d="m 0,0 v 21 h 82 v -21 z
															m 11,1.5 l 2,7 h 6.63 l -5.38,3.44 l 2.3,6.5 l -5.69,-4.13 l -5.69,4.13 l 2.3,-6.5 l -5.38,-3.44 h 6.63 z
															m 30,0   l 2,7 h 6.63 l -5.38,3.44 l 2.3,6.5 l -5.69,-4.13 l -5.69,4.13 l 2.3,-6.5 l -5.38,-3.44 h 6.63 z
															m 30,0   l 2,7 h 6.63 l -5.38,3.44 l 2.3,6.5 l -5.69,-4.13 l -5.69,4.13 l 2.3,-6.5 l -5.38,-3.44 h 6.63 z" />

	<!-- Нижний path располагается поверх верхнего. Но пришлось увеличить stroke-width до 2, чтобы полностью перекрыть рамку верхнего path -->
	<path fill="none" stroke="white" stroke-width="3" id="svg_2" class="" d="m 0,0 h 82 v 21 h -82 z" />
</svg>