<?xml version="1.0" encoding="UTF-8" standalone="no"?>
<svg xmlns="http://www.w3.org/2000/svg" x="0px" y="0px" width="225.548" height="501.76001" viewBox="0 0 225.548 501.76001">
	<g transform="translate(-138.106,0)">
		<path style="fill:#a8a8a8;fill-opacity:1"
			d="m 363.654,112.78 0,243.946 c 0,5.326 -4.315,9.646 -9.646,9.646 -5.332,0 -9.652,-4.32 -9.652,-9.646 l 0,-243.946 c 0,-51.551 -41.931,-93.481 -93.473,-93.481 -51.545,0 -93.476,41.937 -93.476,93.481 l 0,15.936 0,83.587 0,196.196 c 0,40.784 33.18,73.974 73.961,73.974 40.793,0 73.971,-33.178 73.971,-73.974 l 0,-162.694 0,-86.874 c 0,-26.602 -21.64,-48.24 -48.238,-48.24 -26.61,0 -48.241,21.639 -48.241,48.24 l 0,216.751 c 0,5.325 -4.315,9.646 -9.649,9.646 -5.332,0 -9.646,-4.321 -9.646,-9.646 l 0,-216.75 c 0,-37.234 30.298,-67.536 67.536,-67.536 37.238,0 67.536,30.302 67.536,67.536 l 0,86.874 0,162.694 0,7.714 c 0,1.365 -0.283,2.647 -0.792,3.818 -5.71,45.991 -44.969,81.728 -92.482,81.728 -51.424,0 -93.257,-41.836 -93.257,-93.26 l 0,-196.203 0,-83.587 0,-15.936 C 138.111,50.597 188.698,0 250.883,0 c 62.18,0 112.771,50.597 112.771,112.78 z"/>
	</g>
	<path style="fill:#a8a8a8;fill-opacity:1"
		d="M 73.352565,498.36814 C 55.741985,494.08975 42.296785,486.38899 28.639955,472.75889 12.805738,456.9557 5.0295852,441.23259 2.051044,418.99712 0.62732286,408.36871 0.10167077,347.45677 0.57822191,248.32819 1.3977007,77.866395 0.72451528,86.431585 15.495508,58.529932 23.092639,44.179337 45.300699,22.399946 60.906055,13.995916 c 30.489868,-16.4198597 73.245025,-16.4198597 103.734895,0 15.60535,8.40403 37.81341,30.183421 45.41055,44.534016 14.55358,27.490993 14.06054,21.94184 14.90237,167.723988 0.6927,119.95948 0.44439,132.38601 -2.70829,135.53872 -3.93422,3.93421 -7.05703,4.30636 -11.6716,1.39093 -2.76248,-1.74529 -3.33136,-20.30066 -4.25219,-138.69529 L 205.25874,87.807835 198.64582,73.988202 c -35.26158,-73.68938501 -136.483053,-73.68938501 -171.744636,0 l -6.612923,13.819633 0,171.150845 0,171.15085 5.247349,10.63049 c 27.897227,56.51639 107.73428,55.89937 135.70329,-1.04877 l 5.75009,-11.70782 0.62437,-137.13329 c 0.45232,-99.34601 -0.0563,-139.59862 -1.84597,-146.0802 -3.17811,-11.51031 -15.30641,-25.635 -26.29902,-30.62799 -17.50223,-7.94975 -39.886451,-4.06362 -54.062233,9.38577 -15.521058,14.72573 -15.055781,10.44495 -15.107892,138.99976 -0.04129,101.84163 -0.433826,115.57607 -3.387704,118.52994 -4.127997,4.12801 -8.129534,4.26325 -11.349368,0.38357 -1.807117,-2.17744 -2.29633,-34.55995 -1.854903,-122.78213 l 0.599551,-119.82469 4.871933,-9.12412 c 6.29492,-11.78909 19.12524,-24.54436 30.651986,-30.472693 13.70125,-7.046706 37.37614,-7.903721 53.21654,-1.926402 14.41774,5.440485 28.68193,18.732945 35.95764,33.508075 l 4.99385,10.14124 0.63783,139.25939 c 0.71567,156.25551 0.8448,154.65873 -14.41602,178.27016 -13.48824,20.86895 -36.22071,35.88615 -61.61249,40.70161 -14.067064,2.66776 -21.609788,2.49162 -35.254525,-0.82329 z"/>
	<path style="fill:#a8a8a8;fill-opacity:1"
		d="m 55.909822,383.36924 c -0.993331,-0.66012 -2.344226,-2.26551 -3.001987,-3.56753 l -1.19593,-2.36732 0.0031,-111.64037 c 0.0027,-96.34594 0.111979,-112.36253 0.797643,-116.91168 0.436981,-2.89922 0.917824,-5.39462 1.068541,-5.54534 0.150718,-0.15072 0.210354,50.29775 0.132525,112.10771 -0.144338,114.63064 -0.0072,124.11424 1.826864,126.33598 0.379088,0.45923 1.406809,1.27366 2.283824,1.80987 0.95998,0.58694 1.255675,0.97572 0.743009,0.97691 -0.46836,0.001 -1.66429,-0.53811 -2.657622,-1.19823 z"/>
	<path style="fill:#a8a8a8;fill-opacity:1"
		d="M 69.517971,498.34753 C 61.803868,496.1885 59.557816,495.35225 53.000623,492.19781 23.68501,478.09509 4.0336531,449.86 0.71168212,417.06901 0.40497969,414.04157 0.19326254,402.44105 0.24119966,391.29008 l 0.0871583,-20.27449 0.39272114,20.72945 c 0.50198645,26.49693 1.41770525,34.34815 5.39063595,46.21841 4.6929099,14.02141 11.4687809,24.20101 24.4283029,36.69939 12.836293,12.37954 24.235237,18.9057 40.838289,23.38088 3.65423,0.98496 5.926496,1.79098 5.049481,1.79115 -0.877015,1.6e-4 -3.986433,-0.66914 -6.909817,-1.48734 z"/>
	<path style="fill:#a8a8a8;fill-opacity:1"
		d="m 22.853373,434.77052 c -2.130776,-4.28944 -2.497214,-5.48735 -2.473115,-8.08478 l 0.02829,-3.04924 1.33032,4.50179 c 0.731676,2.47598 1.93799,6.02073 2.680699,7.8772 0.742708,1.85648 1.256966,3.46883 1.142795,3.583 -0.114171,0.11417 -1.333216,-2.05841 -2.708989,-4.82797 z"/>
	<path style="fill:#a8a8a8;fill-opacity:1"
		d="m 162.31419,436.24313 c -0.0249,-0.37481 0.32976,-1.57074 0.78806,-2.65762 0.4583,-1.08688 1.39948,-4.24841 2.0915,-7.02563 l 1.25821,-5.04948 0.0187,3.45491 c 0.016,2.95129 -0.28233,4.07475 -2.04628,7.7071 -1.13572,2.33871 -2.0853,3.94553 -2.11018,3.57072 z"/>
	<path style="fill:#a8a8a8;fill-opacity:1"
		d="m 180.39321,440.00681 c -0.0288,-0.35116 0.30136,-1.99669 0.73375,-3.65674 1.19724,-4.59651 2.27291,-13.23508 3.03915,-24.40711 0.53966,-7.86836 0.66982,-34.10723 0.58928,-118.79569 -0.0568,-59.78321 -0.22393,-118.14458 -0.3713,-129.69195 -0.25742,-20.17194 -0.23362,-20.87016 0.60694,-17.80606 0.79892,2.91226 0.89173,14.79525 1.06892,136.86752 0.14791,101.89091 0.0432,134.56312 -0.4403,137.39905 -1.4605,8.56625 -5.04225,22.33488 -5.22644,20.09098 z"/>
	<path style="fill:#a8a8a8;fill-opacity:1"
		d="m 100.61215,500.73882 c 0.4385,-0.11069 2.59118,-0.4798 4.78372,-0.82025 18.75514,-2.9122 37.00472,-11.79104 50.94078,-24.78384 5.93076,-5.52934 10.42712,-10.98934 15.27305,-18.5463 1.97085,-3.07345 3.69694,-5.47451 3.83576,-5.3357 0.41545,0.41545 -4.06172,7.88411 -7.39258,12.33203 -13.7336,18.33948 -33.28545,31.07323 -54.90194,35.75662 -4.11119,0.89073 -15.607057,2.17193 -12.53879,1.39744 z"/>
	<path style="fill:#a8a8a8;fill-opacity:1"
		d="m 94.620642,501.1212 c 0.94358,-0.11742 2.617882,-0.11935 3.720671,-0.004 1.102789,0.11507 0.33077,0.21114 -1.715599,0.2135 -2.046369,0.002 -2.948651,-0.0918 -2.005072,-0.20921 z"/>
	<path style="fill:#a8a8a8;fill-opacity:1"
		d="m 96.260291,501.67325 c 0.383694,-0.15354 0.842134,-0.13466 1.018755,0.042 0.176621,0.17663 -0.13731,0.30225 -0.697626,0.27917 -0.619195,-0.0255 -0.745143,-0.15145 -0.321129,-0.32113 z"/>
	<path style="fill:#a8a8a8;fill-opacity:1"
		d="m 211.9665,365.21579 c -2.05399,-0.91291 -3.72462,-2.74545 -4.75835,-5.21952 -0.71792,-1.71822 -0.81163,-6.52193 -0.73603,-37.73097 l 0.0866,-35.76209 0.41004,25.24741 c 0.43846,26.99759 1.1861,43.9955 2.12837,48.38915 0.45946,2.14237 0.92734,2.92639 2.21298,3.70823 3.68478,2.24085 7.14129,1.75942 10.60118,-1.47655 1.91272,-1.78893 2.57466,-5.18046 3.08489,-15.80587 l 0.40838,-8.5045 -0.075,10.7187 -0.075,10.7187 -1.59457,2.24865 c -0.87702,1.23676 -2.42799,2.69198 -3.44662,3.23382 -2.15837,1.1481 -5.94923,1.25605 -8.24692,0.23484 z"/>
	<path style="fill:#a8a8a8;fill-opacity:1"
		d="M 0.24933942,170.6309 C 0.15283293,105.71793 0.26568379,101.82201 2.5725873,90.426095 4.2112725,82.331124 5.0520431,80.940474 3.8914791,88.244624 1.859275,101.03455 1.1631951,121.35334 0.723126,180.72986 L 0.34100494,232.28773 0.24933942,170.6309 Z"/>
	<path style="fill:#a8a8a8;fill-opacity:1"
		d="m 224.86035,184.45053 c -0.47319,-65.70698 -1.10224,-83.81319 -3.3769,-97.19763 -0.44047,-2.591817 -0.69249,-4.820763 -0.56004,-4.953214 0.30328,-0.303279 2.20489,8.062604 3.34483,14.71509 0.75749,4.420614 0.893,13.059244 1.08807,69.363934 0.12256,35.37294 0.14981,66.22793 0.0606,68.56664 -0.0892,2.33871 -0.33968,-20.38396 -0.55652,-50.49482 z"/>
	<path style="fill:#a8a8a8;fill-opacity:1"
		d="m 204.33396,93.005954 c -0.3524,-1.912514 -1.47241,-6.016211 -2.48891,-9.119328 -1.01651,-3.103116 -1.76275,-5.727479 -1.65831,-5.831917 0.10444,-0.104439 1.17028,2.025974 2.36854,4.734251 1.73807,3.928345 2.24934,5.810921 2.52823,9.309216 0.19227,2.411791 0.24644,4.385076 0.12037,4.385076 -0.12606,0 -0.51753,-1.564784 -0.86992,-3.477298 z"/>
	<path style="fill:#a8a8a8;fill-opacity:1"
		d="M 213.02955,63.631867 C 207.0865,52.062467 201.87626,45.268497 190.09492,33.72588 179.53061,23.375637 172.40803,17.896212 163.08242,12.945056 c -2.63994,-1.401593 -4.461,-2.55294 -4.04681,-2.558551 1.08103,-0.01464 10.08652,4.88097 15.32745,8.33239 16.58146,10.919743 29.67571,25.626068 38.85817,43.642128 1.83316,3.596662 3.25751,6.750839 3.16524,7.009282 -0.0923,0.258443 -1.60289,-2.323851 -3.35692,-5.738438 z"/>
	<path style="fill:#a8a8a8;fill-opacity:1"
		d="M 10.808057,65.642608 C 10.779492,64.659793 16.301097,54.640394 19.326258,50.185646 30.354356,33.946052 45.87704,20.392838 63.139679,11.931135 88.138694,-0.32274003 115.65327,-2.9585789 142.60257,4.3187572 c 5.45871,1.4740586 16.1738,5.4751279 15.76296,5.8859678 -0.1387,0.138706 -2.60598,-0.6321081 -5.48284,-1.7129194 C 125.30882,-1.8674811 91.229142,-0.61991535 65.182077,11.702291 58.731231,14.754023 53.139932,18.306888 46.928186,23.301317 33.547691,34.059631 21.806858,47.072494 15.668515,57.947735 c -4.612323,8.171608 -4.836295,8.526188 -4.860458,7.694873 z"/>
	<path style="fill:#a8a8a8;fill-opacity:1"
		d="m 8.6747094,70.438558 c 0,-0.438508 0.2318608,-1.156066 0.5152462,-1.594574 0.4579965,-0.708699 0.5152461,-0.708699 0.5152461,0 0,0.438508 -0.2318608,1.156066 -0.5152461,1.594574 -0.4579966,0.708699 -0.5152462,0.708699 -0.5152462,0 z"/>
	<path style="fill:#a8a8a8;fill-opacity:1"
		d="m 20.431643,91.965294 c -0.02504,-3.933174 0.128498,-4.551276 2.046422,-8.238627 1.140418,-2.192538 2.085324,-3.781837 2.099792,-3.531775 0.01447,0.250063 -0.56731,2.402736 -1.292839,4.78372 -0.72553,2.380983 -1.658257,5.883769 -2.072727,7.783969 l -0.753583,3.454908 -0.02707,-4.252195 z"/>
	<path style="fill:#a8a8a8;fill-opacity:1"
		d="m 179.52907,131.48996 c -6.37513,-13.51457 -21.20515,-28.05011 -34.09181,-33.414841 -8.99645,-3.745231 -17.47098,-5.049349 -29.94243,-4.607743 -8.80427,0.311754 -13.33567,1.025266 -19.567474,3.081084 -4.709547,1.553638 -4.702296,0.888184 0.0086,-0.785106 18.79265,-6.675133 39.17162,-4.97369 56.22303,4.694066 7.86274,4.458 16.44344,12.2854 21.93425,20.00865 3.02002,4.2479 7.51494,12.87681 7.19995,13.82177 -0.10117,0.3035 -0.895,-0.95555 -1.76407,-2.79788 z"/>
	<path style="fill:#a8a8a8;fill-opacity:1"
		d="m 60.386508,126.1174 c 1.495638,-4.25108 11.567413,-15.8987 17.753959,-20.53175 4.19081,-3.13847 9.126017,-6.147981 9.488105,-5.785893 0.151256,0.151256 -0.770474,0.887703 -2.048289,1.636553 -6.331706,3.71063 -17.034961,13.89723 -21.882138,20.82587 -3.003304,4.29298 -3.786382,5.2046 -3.311637,3.85522 z"/>
	<path style="fill:#a8a8a8;fill-opacity:1"
		d="m 74.579525,138.58889 c -0.03121,-1.76327 5.523237,-10.70281 6.218212,-10.00784 0.140449,0.14045 -0.387223,1.09784 -1.172605,2.12753 -0.785382,1.02969 -2.23922,3.37746 -3.230751,5.21727 -0.991531,1.83981 -1.808216,3.03818 -1.814856,2.66304 z"/>
	<path style="fill:#a8a8a8;fill-opacity:1"
		d="m 60.798268,384.6054 c 2.448066,-0.4783 5.149583,-2.06325 6.403071,-3.75661 1.469544,-1.98524 2.117759,-6.57279 2.553527,-18.07183 l 0.392782,-10.36473 0.0838,12.91587 c 0.0909,14.00978 0.01983,14.42807 -2.925008,17.21433 -1.885746,1.7842 -3.934631,2.57625 -6.460347,2.49743 l -1.958614,-0.0611 1.910784,-0.37333 z"/>
</svg>