<svg width="256" height="256" xmlns="http://www.w3.org/2000/svg">
  <path id="svg_2" d="m126.55,0l6.53,0c31.13,1.33 61.61,14.25 83.92,36.04c23.78,22.8 38.04,55.07 39,88l0,7.44c-0.74,27.85 -10.84,55.34 -28.44,76.95c-18.53,23.04 -45.29,39.33 -74.31,45.06c-6.75,1.39 -13.62,2.04 -20.48,2.51l-6.26,0c-28.79,-0.26 -57.32,-10.63 -79.54,-28.94c-28.41,-22.98 -45.98,-58.59 -46.97,-95.12l0,-9.09c0.6,-9.25 1.77,-18.49 4.19,-27.45c7.43,-28.47 25.09,-54.09 48.99,-71.24c21.2,-15.36 47.19,-23.9 73.37,-24.16z" fill="#1f4c77"/>
  <path id="svg_4" d="m114.29,4.34c22.84,-2.48 46.39,1.25 67.09,11.3c28.2,13.29 50.96,37.63 62.33,66.65c8.92,21.94 10.8,46.48 6.45,69.69c-5.71,29.2 -22.33,56.08 -45.87,74.28c-21.61,16.84 -48.9,26.37 -76.34,26.12c-30.22,0.25 -60.26,-11.37 -82.72,-31.55c-20.16,-17.84 -34.19,-42.44 -39.39,-68.85c-4.32,-22.94 -2.52,-47.18 6.14,-68.92c10.74,-27.97 32.05,-51.69 58.66,-65.44c13.58,-7.03 28.41,-11.74 43.65,-13.28z" fill="#2f6498"/>
  <path id="svg_5" d="m88.36,56.35c7.19,-3.86 15.67,-6.26 23.8,-4.33c2.79,0.76 5.85,1.76 7.52,4.3c19.53,26.5 39.1,52.96 58.66,79.43c1.34,1.94 3.3,3.69 3.45,6.19c2.92,21.13 6.02,42.23 8.9,63.37c-18.85,-8.16 -37.72,-16.26 -56.58,-24.38c-1.95,-0.93 -4.33,-1.43 -5.57,-3.35c-20.84,-28.55 -41.76,-57.05 -62.56,-85.63c-1.78,-4.18 -0.7,-9.11 0.8,-13.25c4.07,-9.8 12.29,-17.47 21.58,-22.35z" fill="#ffffff"/>
  <path id="svg_6" d="m96.94,61.83c4.59,-1.41 9.51,-1.19 14.1,0.05c-8.34,1.96 -16.26,5.76 -22.74,11.41c-5.41,4.41 -9.51,10.1 -13.38,15.85c-1.16,-5.62 1.75,-10.89 5.22,-15.06c4.48,-5.34 9.93,-10.34 16.8,-12.25z" fill="#2f6498"/>
  <path id="svg_7" d="m80.59,96.34c5.41,-15.34 20.43,-25.25 35.91,-28.26c2.44,3.41 4.9,6.82 7.4,10.19c-15.49,3.22 -29.51,13.48 -36.35,27.86c-2.41,-3.2 -4.72,-6.47 -6.96,-9.79z" fill="#2f6498"/>
  <path id="svg_8" d="m108.01,93.69c5.7,-5.12 13.13,-8.09 20.73,-8.75c13.66,18.41 27.4,36.76 41.02,55.19c-6.69,3.45 -14.68,4.65 -21.95,2.41c-1.94,-0.66 -4.16,-1.16 -5.36,-2.97c-11.51,-15.27 -22.95,-30.6 -34.44,-45.88z" fill="#2f6498"/>
  <path id="svg_9" d="m93.39,112.2c2.65,-5.77 6.39,-11.13 11.3,-15.19c11.57,15.54 23.33,30.97 34.78,46.59c3.94,8.5 0.72,18.43 -4.04,25.92c-13.59,-18.05 -27.17,-36.11 -40.84,-54.1c-0.53,-0.96 -1.99,-2.02 -1.2,-3.22z" fill="#2f6498"/>
  <path id="svg_12" d="m145.49,147.26c9.18,1.36 18.89,0.64 27.3,-3.54c1.74,12.46 3.74,24.88 5.21,37.37c-3.25,0.96 -5.85,3.15 -7.68,5.96c-10.6,-4.89 -21.18,-9.83 -31.77,-14.74c5.61,-7 7.48,-16.25 6.94,-25.05z" fill="#2f6498"/>
</svg>