<?xml version="1.0" encoding="UTF-8" standalone="no"?>
<svg xmlns="http://www.w3.org/2000/svg" viewBox="0 0 115.9 115.9" width="115.9" height="115.9">
	<path style="fill:#7f7f7f;fill-opacity:1"
		d="m 111.10211,115.55406 c -0.29041,-0.10353 -0.7478,-0.34461 -1.01642,-0.53574 -1.21534,-0.86472 -7.30382,-6.81837 -23.817984,-23.290509 L 74.023941,79.515203 71.577557,81.124322 c -5.842147,3.842693 -8.939153,5.390297 -13.633782,6.812933 -3.489687,1.057498 -6.94945,1.564702 -11.428599,1.675442 -3.309556,0.08182 -5.699436,-0.06003 -8.710494,-0.517034 C 30.414198,87.973979 23.284345,84.870998 17.386051,80.209277 15.61409,78.808805 11.764594,74.970421 10.411458,73.254817 4.7397436,66.063805 1.4012644,57.7408 0.58677654,48.761368 0.35215309,46.17473 0.49151264,41.159195 0.86872922,38.613922 1.24322,36.087042 2.1395506,32.499434 2.9854946,30.141464 3.80341,27.86162 5.7377151,23.92231 7.1126893,21.736223 12.177587,13.683484 19.943549,7.0277026 28.162748,3.6953694 28.779056,3.445498 29.25521,3.1955955 29.220869,3.1400304 c -0.09707,-0.1570588 2.049989,-0.8260455 2.343377,-0.7301567 0.220046,0.071919 0.228763,0.060146 0.0558,-0.075364 -0.167544,-0.1312674 -0.14026,-0.1466058 0.149401,-0.083989 0.194907,0.042134 0.786815,-0.043226 1.315348,-0.1896905 1.502513,-0.4163678 4.162425,-0.9196393 6.25612,-1.18369632 2.344795,-0.29572578 8.757178,-0.3391544 11.068856,-0.0749651 8.717896,0.99632196 15.569473,3.84659006 22.411017,9.32302356 2.132077,1.706659 5.915247,5.435888 7.36247,7.257496 3.268532,4.114074 5.897102,9.215013 7.786563,15.110414 0.917231,2.861894 1.290181,5.071705 1.505807,8.922196 0.02736,0.488533 0.02564,-0.11103 -0.0038,-1.332362 -0.03164,-1.312247 -0.0017,-2.220604 0.07321,-2.220604 0.06972,0 0.09484,0.122069 0.05582,0.271264 -0.03902,0.149194 -0.02653,0.379795 0.02774,0.512447 0.129046,0.315406 0.212437,1.052892 0.201405,1.781164 -0.0049,0.320878 0.02889,0.644455 0.075,0.719062 0.16393,0.265244 0.03449,9.091541 -0.135833,9.261858 -0.03948,0.03948 -0.07988,0.292142 -0.08978,0.561462 l -0.01798,0.489671 -0.08977,-0.478284 c -0.0816,-0.434734 -0.09929,-0.397406 -0.194224,0.409958 -0.421079,3.580855 -2.161908,8.833086 -4.509601,13.605853 -1.401196,2.848574 -2.445474,4.600297 -4.222124,7.0824 l -1.358937,1.898529 1.61819,1.653389 c 0.890005,0.909365 7.62079,7.680239 14.957302,15.046387 16.654766,16.722047 18.403086,18.564067 19.196776,20.225627 0.17951,0.37579 0.3264,0.59102 0.32643,0.47828 1.4e-4,-0.71268 -2.00543,-3.16873 -5.66682,-6.93952 -1.26123,-1.29892 -2.26329,-2.39152 -2.2268,-2.42801 0.10255,-0.10255 6.37747,6.32259 7.29089,7.46543 0.44568,0.55762 0.85683,1.03448 0.91367,1.05969 0.0568,0.0252 0.0689,0.10159 0.0268,0.16974 -0.0421,0.0681 -0.0221,0.22122 0.0445,0.34018 0.14842,0.26521 -0.14983,1.94256 -0.44789,2.51895 -0.34789,0.67274 -1.34845,1.70488 -1.70144,1.75514 -0.26995,0.0384 -0.18462,-0.086 0.46822,-0.68265 0.74541,-0.68126 1.30098,-1.55416 1.29144,-2.02908 -0.002,-0.11273 -0.12717,0.11511 -0.27757,0.50632 -0.31962,0.83139 -1.25338,1.74357 -2.3382,2.28416 -0.80476,0.40103 -0.9301,0.41253 -1.66006,0.15231 z M 50.683079,81.733392 c 2.410903,-0.359036 5.617185,-1.146462 7.524794,-1.848007 3.179719,-1.169374 7.346327,-3.564257 10.110113,-5.811092 1.540176,-1.252094 4.608868,-4.345199 5.828724,-5.875095 2.964442,-3.717888 5.274465,-8.185557 6.513002,-12.596383 0.526546,-1.875196 1.016228,-4.313414 0.93142,-4.637718 -0.03702,-0.141585 -0.0049,-0.257425 0.07149,-0.257425 0.07817,0 0.114418,-0.208928 0.08297,-0.478284 -0.03071,-0.263056 -0.0036,-0.478284 0.06013,-0.478284 0.129656,0 0.132045,-0.0756 0.138153,-4.372881 0.0024,-1.691075 -0.03312,-3.474391 -0.07895,-3.962924 -0.04582,-0.488533 -0.08397,-1.083469 -0.08477,-1.322079 -8.2e-4,-0.238612 -0.06188,-0.471182 -0.135727,-0.516824 -0.07385,-0.04564 -0.09963,-0.173256 -0.05729,-0.283588 0.04234,-0.110331 0.03051,-0.308216 -0.02629,-0.439744 -0.0568,-0.131528 -0.08972,-0.377503 -0.07317,-0.54661 0.01655,-0.169108 -0.02727,-0.307468 -0.09738,-0.307468 -0.07012,0 -0.09809,-0.153734 -0.06217,-0.341632 0.03721,-0.194652 0.0015,-0.341631 -0.08299,-0.341631 -0.08156,0 -0.114761,-0.08739 -0.07378,-0.194193 0.176022,-0.458706 -1.23556,-4.973507 -2.352158,-7.523134 -1.066797,-2.435912 -3.072169,-5.609965 -4.502713,-7.126784 -0.258945,-0.274562 -0.470809,-0.529834 -0.470809,-0.567272 0,-0.269704 -5.444283,-5.633109 -5.718054,-5.633109 -0.0869,0 -0.158006,-0.05815 -0.158006,-0.129235 0,-0.07108 -0.507322,-0.524457 -1.127383,-1.007507 C 63.655174,12.651648 60.090293,10.86269 55.877873,9.6322589 53.147124,8.834618 49.798541,8.2363917 47.813375,8.191532 c -3.318031,-0.074979 -5.328007,-0.017824 -7.037606,0.2001192 -0.338215,0.043116 -0.707176,0.085891 -0.819915,0.095056 -0.437671,0.035577 -2.538865,0.419659 -2.733051,0.4995801 -0.112738,0.0464 -0.312592,0.071047 -0.44412,0.054771 -0.131528,-0.016275 -0.239186,0.020394 -0.239239,0.081488 -5.2e-5,0.061094 -0.154017,0.1199617 -0.342143,0.130818 -0.188124,0.010856 -0.44943,0.065515 -0.580676,0.1214628 -0.131247,0.055948 -0.330871,0.114064 -0.44361,0.1291462 -0.576146,0.077077 -1.09322,0.2431689 -1.09322,0.3511575 0,0.066828 -0.09224,0.08611 -0.204979,0.042848 -0.112738,-0.043262 -0.205022,-0.025958 -0.205076,0.038452 -5.2e-5,0.06441 -0.16182,0.126478 -0.359482,0.137928 -0.197661,0.01145 -0.397473,0.07294 -0.444024,0.136653 -0.04655,0.06371 -0.146132,0.119263 -0.221291,0.123455 -0.324602,0.0181 -0.888241,0.23673 -0.888241,0.344536 0,0.06465 -0.08431,0.0852 -0.187359,0.04565 -0.103047,-0.03954 -0.27362,0.0085 -0.379048,0.106778 -0.105429,0.09827 -0.282465,0.196146 -0.393415,0.2175 -0.418837,0.08061 -0.953314,0.340813 -0.953314,0.464102 0,0.07048 -0.06304,0.08918 -0.140084,0.04156 -0.391287,-0.241828 -5.793058,3.014655 -8.195721,4.940828 -1.521552,1.219803 -4.354048,4.052113 -5.515573,5.515212 -4.429379,5.579407 -7.2770422,12.623128 -7.7068774,19.06303 -0.1263098,1.892405 -0.1977565,6.493556 -0.1046017,6.736314 0.042152,0.109846 0.1030653,0.791389 0.1353636,1.514541 0.2787118,6.240281 3.6744245,14.010482 8.7860365,20.104547 5.400985,6.439059 13.770943,11.103066 22.170482,12.354102 2.160666,0.321813 2.269646,0.327129 5.944386,0.289997 2.696246,-0.02724 3.848354,-0.09886 5.466102,-0.339777 z M 89.661712,44.045861 c -0.02712,-0.432164 -0.04931,-0.07858 -0.04931,0.785752 0,0.864327 0.02219,1.217916 0.04931,0.785752 0.02712,-0.432164 0.02712,-1.139341 0,-1.571504 z"/>
	<path style="fill:#7f7f7f;fill-opacity:1"
		d="m 43.698132,75.502266 c -0.742116,-0.273975 -1.60813,-1.029413 -2.055809,-1.793321 -0.345712,-0.589912 -0.366085,-0.736189 -0.469473,-3.370679 -0.139499,-3.554658 -0.154473,-14.682501 -0.02129,-15.81844 0.05954,-0.507854 0.131823,2.418281 0.172496,6.983397 l 0.07001,7.857521 0.03248,-10.057663 0.03248,-10.057661 -1.250865,-0.08879 c -0.687978,-0.04883 -2.855628,-0.09034 -4.817002,-0.09224 -5.724112,-0.0055 -15.951729,-0.247491 -17.242677,-0.40791 -1.338161,-0.166287 -1.716196,-0.324826 -2.33124,-0.97767 -1.413908,-1.500807 -1.450055,-3.974696 -0.07511,-5.140576 0.28216,-0.239258 0.304183,-0.289567 0.09454,-0.215971 -0.567632,0.199269 0.19045,-0.452103 0.998361,-0.85783 l 0.778122,-0.390767 9.019068,0.06833 c 8.742306,0.06623 8.886977,0.07149 4.714513,0.17129 -6.88592,0.164709 -10.255747,0.277413 -10.192279,0.340881 0.05215,0.05215 19.936026,-0.368173 19.980593,-0.422371 0.0097,-0.01181 0.0587,-2.020017 0.108856,-4.462681 0.05016,-2.442664 0.148299,-6.562739 0.21809,-9.155721 0.142469,-5.293185 0.137219,-7.887771 -0.0095,-4.714512 -0.05214,1.127383 -0.117108,2.972192 -0.144375,4.099576 -0.02727,1.127383 -0.08133,-0.563692 -0.120131,-3.757945 l -0.07056,-5.807733 0.324852,-0.614936 c 0.402626,-0.762165 0.700042,-1.110032 0.700042,-0.818792 0,0.124013 0.07901,0.08353 0.214491,-0.109889 0.117971,-0.168426 0.533053,-0.472654 0.922405,-0.676062 0.585515,-0.305889 0.885117,-0.36996 1.732807,-0.370564 1.178531,-8.4e-4 1.642751,0.190078 2.596278,1.067762 l 0.614815,0.565913 -0.546488,-0.592352 c -0.837227,-0.907488 -1.448762,-1.177796 -2.664605,-1.177796 -0.805476,0 -1.152065,0.06719 -1.61891,0.313834 -0.326708,0.172608 -0.62774,0.280109 -0.668959,0.238889 -0.04122,-0.04122 0.256834,-0.229389 0.662341,-0.418156 0.566456,-0.263688 0.960625,-0.34352 1.701187,-0.344546 1.201775,-0.0017 2.081525,0.398447 2.974006,1.352582 0.654095,0.69928 0.918691,1.365107 0.901044,2.267376 -0.01048,0.536257 -0.01383,0.532375 -0.176453,-0.204979 -0.158689,-0.719519 -0.429153,-1.366526 -0.571238,-1.366526 -0.03687,0 0.02488,0.177731 0.137212,0.394957 0.474787,0.918137 0.516858,1.882461 0.580442,13.304461 l 0.06295,11.307998 2.483559,0.0017 c 1.365958,9.56e-4 6.941849,0.06327 12.390869,0.138546 l 9.907309,0.136869 0.242141,0.305574 c 0.133176,0.168066 0.548258,0.756555 0.922404,1.307754 0.797231,1.174495 0.846839,1.58321 0.341394,2.812692 -0.182813,0.444682 -0.297427,0.865077 -0.2547,0.934211 0.109214,0.176712 -0.729002,1.015607 -1.426136,1.427289 -0.479361,0.283079 -0.799795,0.353724 -1.776483,0.391649 l -1.191628,0.04627 0.863651,-0.143177 c 0.475008,-0.07875 0.83479,-0.172039 0.799514,-0.207315 -0.03527,-0.03527 -0.516158,0.0098 -1.068629,0.100113 -0.694247,0.11352 -4.259986,0.183163 -11.544887,0.225483 l -10.540394,0.06123 -0.08284,0.500955 c -0.04556,0.275526 -0.08454,2.069044 -0.08663,3.985596 -0.0061,5.644408 -0.259135,16.895883 -0.414809,18.448093 -0.177999,1.774823 -0.409554,2.267009 -1.303197,2.770043 -0.561541,0.316094 -0.604922,0.365807 -0.26267,0.301014 0.381173,-0.07216 0.371579,-0.05636 -0.136652,0.225051 -0.705968,0.390897 -2.336615,0.484177 -3.158676,0.18069 l 0,-3e-6 z m 2.612065,-0.187438 c 0.151461,-0.05971 -0.214073,-0.08117 -0.819915,-0.04813 -1.420545,0.07746 -1.621239,0.153192 -0.409957,0.154691 0.526112,6.83e-4 1.079555,-0.0473 1.229872,-0.106562 z m -2.459745,-0.146351 c -0.37567,-0.16143 -0.591428,-0.16143 -0.341632,0 0.112739,0.07286 0.29722,0.129088 0.409958,0.124955 0.135157,-0.0049 0.111883,-0.04752 -0.06833,-0.124955 z m -0.690096,-0.240201 c -0.0714,-0.05695 -0.317147,-0.256805 -0.546104,-0.444121 -0.394988,-0.323149 -0.393342,-0.317852 0.03216,0.103549 0.246643,0.244266 0.492389,0.444121 0.546103,0.444121 0.05371,0 0.03925,-0.0466 -0.03216,-0.103549 z m -1.243401,-1.656275 c -0.107475,-0.366632 -0.245692,-1.365904 -0.30715,-2.220604 -0.09343,-1.299277 -0.114497,-1.397205 -0.12855,-0.597433 -0.01836,1.045019 0.166668,2.561558 0.38146,3.126503 0.227409,0.598131 0.262125,0.400698 0.05424,-0.308466 z M 72.852107,48.575323 c -0.04541,-0.04541 -0.163272,-0.05026 -0.261917,-0.01078 -0.109012,0.04362 -0.07663,0.076 0.08256,0.08256 0.144054,0.0059 0.224765,-0.02636 0.179356,-0.07177 l 0,-5e-6 z m 1.67684,-0.942333 c 0.254964,-0.263056 0.432824,-0.478284 0.395245,-0.478284 -0.03758,0 -0.276934,0.215228 -0.531897,0.478284 -0.254964,0.263056 -0.432824,0.478284 -0.395244,0.478284 0.03758,0 0.276933,-0.215228 0.531896,-0.478284 z m -56.6925,-5.67422 c 0.628783,-0.07229 1.573697,-0.143533 2.09981,-0.158316 l 0.956568,-0.02688 -0.819916,-0.05084 c -0.998131,-0.06189 -3.426882,0.187162 -3.73755,0.383264 -0.188213,0.118807 -0.177292,0.129234 0.06624,0.06324 0.160385,-0.04346 0.806068,-0.138173 1.434852,-0.210467 z M 41.689883,19.585056 c -0.03437,-0.131529 -0.06249,-0.02392 -0.06249,0.239141 0,0.263057 0.02812,0.37067 0.06249,0.239142 0.03437,-0.131528 0.03437,-0.346755 0,-0.478283 z m 0.135803,-1.836269 c -0.04362,-0.109012 -0.076,-0.07663 -0.08256,0.08256 -0.0059,0.144054 0.02636,0.224765 0.07177,0.179356 0.04541,-0.04541 0.05026,-0.163271 0.01078,-0.261917 l 5e-6,0 z"/>
</svg>
