<?xml version="1.0" encoding="iso-8859-1"?>
<svg xmlns="http://www.w3.org/2000/svg" x="0px" y="0px" width="197.124px" height="197.125px" viewBox="0 0 197.124 197.125">
	<path fill="#a3a3a3" d="M196.91,88.75c-0.451-10.369-4.705-20.073-12.039-27.406c-7.806-7.808-18.182-12.108-29.222-12.108
		c-11.043,0-21.416,4.3-29.226,12.108c-2.765,2.769-6.45,4.293-10.362,4.293c-3.911,0-7.597-1.524-10.362-4.293
		c-2.978-2.972-4.53-7.083-4.271-11.278c0.018-0.294-0.004-0.585-0.066-0.869c0.035-0.5,0.062-1.001,0.062-1.502
		c0.007-0.106,0.007-0.21,0.007-0.316c-0.003-0.115-0.01-0.228-0.023-0.339c-0.382-10.496-4.654-20.326-12.044-27.709
		C81.57,11.536,71.208,7.249,60.19,7.249c-8.604,0-16.853,2.614-23.851,7.561c-2.077,1.468-3.85,2.948-5.417,4.517
		c-0.578,0.579-1.104,1.177-1.632,1.785l-0.187,0.212c-0.098,0.079-0.195,0.166-0.284,0.257
		C-9.608,60.018-9.608,122.561,28.831,161c18.618,18.623,43.372,28.876,69.706,28.876c26.337,0,51.089-10.253,69.713-28.876
		c19.023-19.027,29.272-44.317,28.862-71.216C197.105,89.435,197.033,89.087,196.91,88.75z M163.291,156.043
		c-17.299,17.296-40.292,26.823-64.758,26.823c-24.463,0-47.455-9.527-64.752-26.823C-1.773,120.488-1.924,62.742,33.319,27.001
		c0.25-0.165,0.484-0.365,0.683-0.592c0.116-0.133,0.226-0.267,0.284-0.357l0.291-0.335c0.421-0.481,0.835-0.96,1.3-1.427
		c1.287-1.289,2.758-2.516,4.507-3.749c5.809-4.107,12.657-6.28,19.802-6.28c9.146,0,17.746,3.564,24.219,10.032
		c6.196,6.189,9.744,14.455,10.001,23.269c0.003,0.035,0.003,0.074,0.007,0.108c0.003,0.372-0.024,0.748-0.05,1.119l-0.051,0.984
		c-0.012,0.284,0.017,0.562,0.077,0.828c-0.103,5.859,2.178,11.536,6.346,15.703c4.095,4.093,9.533,6.346,15.319,6.346
		c5.787,0,11.225-2.253,15.317-6.346c6.485-6.483,15.105-10.054,24.271-10.054c9.164,0,17.781,3.571,24.267,10.054
		c6.266,6.264,9.821,14.616,10.013,23.517c0.007,0.318,0.075,0.642,0.182,0.95C190.261,115.429,180.758,138.577,163.291,156.043z"/>
	<path fill="#a3a3a3" d="M161.009,83.092c-4.155,0-8.062,1.619-10.999,4.555c-2.939,2.936-4.562,6.848-4.562,11.004
		c0,4.158,1.622,8.062,4.562,11.002c2.937,2.937,6.844,4.559,10.999,4.559c4.157,0,8.065-1.615,11.009-4.562
		c6.061-6.068,6.061-15.938,0-22.007C169.074,84.71,165.163,83.092,161.009,83.092z M167.062,104.698
		c-3.23,3.23-8.863,3.23-12.094,0c-1.619-1.615-2.509-3.765-2.509-6.047c0-2.286,0.89-4.43,2.509-6.049
		c1.615-1.615,3.761-2.507,6.043-2.507c2.286,0,4.438,0.892,6.054,2.507C170.396,95.937,170.392,101.365,167.062,104.698z"/>
	<path fill="#a3a3a3" d="M139.049,122.103c-4.158,0-8.063,1.622-11.003,4.559c-2.942,2.939-4.562,6.844-4.562,11.005
		c0,4.155,1.619,8.062,4.562,10.999c2.939,2.943,6.845,4.559,11.003,4.559c4.154,0,8.062-1.615,11.002-4.559
		c2.939-2.937,4.559-6.844,4.559-10.999c0-4.161-1.619-8.062-4.559-11.005C147.111,123.725,143.203,122.103,139.049,122.103z
		 M145.096,143.71c-3.23,3.23-8.86,3.23-12.091,0c-1.619-1.615-2.509-3.765-2.509-6.044c0-2.286,0.89-4.435,2.509-6.05
		c1.615-1.615,3.761-2.506,6.047-2.506s4.432,0.891,6.047,2.506s2.509,3.764,2.509,6.05
		C147.601,139.946,146.711,142.095,145.096,143.71z"/>
	<path fill="#a3a3a3" d="M100.15,143.95c-4.156,0-8.064,1.619-11.004,4.559c-6.062,6.067-6.062,15.94,0,22.005
		c2.939,2.939,6.848,4.558,11.004,4.558s8.064-1.618,11.008-4.558c6.061-6.064,6.061-15.938,0-22.005
		C108.218,145.569,104.307,143.95,100.15,143.95z M106.199,165.557c-3.23,3.23-8.867,3.23-12.098,0
		c-3.333-3.333-3.333-8.761,0-12.094c1.615-1.615,3.763-2.505,6.049-2.505c2.284,0,4.434,0.89,6.052,2.505
		C109.532,156.8,109.532,162.224,106.199,165.557z"/>
	<path fill="#a3a3a3" d="M61.537,122.39c-4.156,0-8.064,1.622-11,4.559c-2.94,2.936-4.563,6.844-4.563,11.002s1.624,8.062,4.563,11.002
		c2.936,2.937,6.844,4.559,11,4.559s8.062-1.622,11.002-4.559c2.941-2.939,4.56-6.844,4.56-11.002s-1.619-8.062-4.56-11.002
		C69.599,124.012,65.693,122.39,61.537,122.39z M67.583,143.998c-3.23,3.23-8.858,3.23-12.089,0
		c-1.619-1.615-2.51-3.758-2.51-6.043c0-2.286,0.892-4.429,2.51-6.051c1.615-1.615,3.759-2.505,6.045-2.505
		c2.284,0,4.432,0.89,6.047,2.505c1.617,1.615,2.507,3.765,2.507,6.051C70.09,140.234,69.2,142.382,67.583,143.998z"/>
	<path fill="#a3a3a3" d="M49.814,87.173c-2.94-2.94-6.848-4.555-11.004-4.555s-8.063,1.619-10.999,4.555c-2.941,2.941-4.563,6.848-4.563,11.004
		c0,4.157,1.622,8.064,4.563,11c2.936,2.939,6.843,4.562,10.999,4.562s8.064-1.618,11.004-4.558
		C55.883,103.117,55.883,93.24,49.814,87.173z M44.858,104.222c-3.23,3.233-8.858,3.233-12.088,0
		c-1.621-1.615-2.51-3.765-2.51-6.045s0.89-4.43,2.51-6.049c1.615-1.615,3.759-2.501,6.043-2.501c2.286,0,4.433,0.89,6.049,2.501
		C48.195,95.465,48.195,100.889,44.858,104.222z"/>
	<path fill="#a3a3a3" d="M63.386,25.813c-3.949,0-7.56,1.434-10.162,4.033c-6.062,6.069-5.145,16.863,2.057,24.058
		c3.869,3.869,8.932,6.086,13.897,6.086c3.949,0,7.556-1.434,10.155-4.033c6.066-6.065,5.148-16.859-2.05-24.058
		C73.415,28.035,68.352,25.813,63.386,25.813z M74.375,51.006c-1.636,1.637-3.732,1.979-5.2,1.979
		c-3.123,0-6.377-1.468-8.942-4.033c-4.464-4.464-5.39-10.811-2.057-14.147c1.64-1.639,3.735-1.983,5.207-1.983
		c3.123,0,6.377,1.468,8.942,4.033C76.794,41.323,77.708,47.669,74.375,51.006z"/>
</svg>