<?xml version="1.0" encoding="UTF-8" standalone="no"?>
<svg xmlns="http://www.w3.org/2000/svg" x="0px" y="0px" viewBox="0 0 511.99976 440.285" width="511.99976" height="440.285">
	<path style="fill:#666666;fill-opacity:1"
		d="M 32.159902,437.61279 C 20.844021,433.96939 10.696435,425.38754 5.4761776,415.04627 -0.9485792,402.3189 -1.1833511,386.85865 4.8649837,374.79781 9.4981766,365.55887 219.36118,18.697017 222.28628,15.443602 c 4.69943,-5.226907 12.56425,-10.2672319 19.84701,-12.7193625 7.09497,-2.38889827 17.13559,-2.88897478 24.13224,-1.2019152 9.98174,2.4068353 21.26965,10.0114027 26.80585,18.0588617 5.73651,8.338642 213.75884,354.225634 215.27514,357.946534 8.63425,21.18784 -0.67526,46.26919 -21.15953,57.00716 -10.4671,5.48693 9.34846,5.0579 -231.77061,5.01799 l -217.342601,-0.036 -5.913877,-1.9041 z M 471.52222,405.91202 c 4.85119,-2.20314 6.8274,-5.55444 6.8274,-11.57801 l 0,-4.9857 L 373.37547,215.23226 C 315.63969,119.46842 267.46478,39.908125 266.3201,38.431591 261.73074,32.511705 253.61167,31.336926 248.20683,35.810713 246.26808,37.415485 215.88825,87.169091 140.75862,211.78062 83.148737,307.33351 35.355188,386.79377 34.550729,388.35896 c -3.231708,6.28778 -0.842805,13.95396 5.369512,17.23122 l 3.380523,1.78336 212.538726,-0.0169 c 205.61109,-0.0163 212.6412,-0.0634 215.68273,-1.44468 l 0,3e-5 z"/>
	<path style="fill:#666666;fill-opacity:1"
		d="m 246.78841,294.16514 c -3.18806,-1.38252 -5.92207,-3.81075 -7.2605,-6.44845 -0.6476,-1.27625 -1.14298,-7.68947 -1.48119,-19.17577 -0.27949,-9.49201 -1.16754,-32.10025 -1.97345,-50.24054 -2.96868,-66.82273 -2.97331,-66.31828 0.65846,-71.72585 5.74295,-8.55106 19.57015,-11.57547 30.31164,-6.63005 5.39288,2.4829 8.69198,6.11591 10.16966,11.19895 1.37923,4.7444 1.34219,6.65086 -1.31951,67.92398 -0.84299,19.40589 -1.78722,42.535 -2.09829,51.39803 -0.65305,18.60663 -0.93725,19.42228 -7.99235,22.93798 -3.31491,1.6519 -5.0135,1.97856 -10.15793,1.95356 -3.7638,-0.0183 -7.22418,-0.48396 -8.85654,-1.19184 z"/>
	<path style="fill:#666666;fill-opacity:1"
		d="m 246.15893,362.09768 c -21.95735,-11.10182 -14.32454,-43.91489 10.23924,-44.01799 20.1835,-0.0847 30.63884,24.40535 16.61773,38.92454 -4.97913,5.156 -8.77899,6.89618 -15.80739,7.2391 -5.76265,0.28117 -6.55351,0.1276 -11.04958,-2.14565 z"/>
	<path style="fill:#666666;fill-opacity:1"
		d="m 251.78594,439.61863 c 162.18927,-0.17111 212.40832,-0.33252 217.97539,-0.70059 3.97852,-0.26304 7.3095,-0.4024 7.4022,-0.30969 0.0927,0.0927 -0.91887,0.4035 -2.2479,0.69066 -2.02216,0.4369 -37.61846,0.52371 -218.14399,0.53202 l -215.727489,0.01 210.741789,-0.22232 z"/>
	<path style="fill:#666666;fill-opacity:1"
		d="m 185.83347,73.928123 c -0.007,-0.223352 0.24118,-0.741098 0.55087,-1.150547 0.3097,-0.409449 0.56857,-0.561712 0.57528,-0.33836 0.007,0.223351 -0.24119,0.741097 -0.55088,1.150546 -0.30969,0.40945 -0.56857,0.561712 -0.57527,0.338361 z"/>
	<path style="fill:#666666;fill-opacity:1"
		d="m 150.44196,440.11217 c 58.05946,-0.0535 153.06585,-0.0535 211.12531,0 58.05946,0.0535 10.55626,0.0973 -105.56266,0.0973 -116.11892,0 -163.62211,-0.0438 -105.56265,-0.0973 z"/>
	<path style="fill:#666666;fill-opacity:1"
		d="m 37.094142,439.21138 c -0.147764,-0.1263 -2.167064,-0.87463 -4.487333,-1.66295 C 20.194456,433.33127 11.021001,425.51783 5.5612389,414.5125 -1.2566136,400.76966 -0.94337165,385.03713 6.3998632,372.39273 17.503481,353.27329 89.796973,233.38339 166.87199,106.26938 l 9.93666,-16.387787 18.71902,-0.0075 c 10.29546,-0.0041 18.64641,0.121938 18.55767,0.280138 -0.0887,0.1582 -5.64905,9.348191 -12.35625,20.422198 -31.57266,52.12848 -96.62971,160.02613 -143.10451,237.34002 -13.358433,22.22263 -24.192459,40.55946 -24.075614,40.74852 0.116846,0.18906 0.04306,0.34375 -0.163961,0.34375 -0.520112,0 -1.322291,2.57024 -1.085174,3.47697 0.106677,0.40794 0.03753,0.7417 -0.153653,0.7417 -0.443708,0 -0.457196,1.80458 -0.01553,2.07755 0.182645,0.11288 0.248817,0.64081 0.147048,1.17318 -0.112963,0.59093 -0.0094,0.96794 0.265826,0.96794 0.247972,0 0.345426,0.17059 0.216565,0.37909 -0.692841,1.12105 4.140952,7.73837 5.182478,7.09467 0.206669,-0.12773 0.375765,-0.0524 0.375765,0.16746 0,0.21983 0.871505,0.84131 1.936681,1.38108 l 1.93668,0.98139 211.010328,-0.16252 c 141.02027,-0.10862 211.9795,-0.2929 213.93229,-0.55558 3.31211,-0.44552 4.70849,-1.06154 6.90543,-3.04634 2.64698,-2.39138 3.0667,-3.67754 3.2878,-10.0744 l 0.15241,-4.41043 -46.83814,-77.6619 C 360.9827,194.37934 345.88946,169.36742 324.14287,133.39561 313.17625,115.25532 302.76992,98.04027 301.01769,95.139934 l -3.18587,-5.273339 18.87737,0 18.87738,0 2.71875,4.506308 c 46.69843,77.402337 141.4543,235.147647 160.28242,266.830937 9.39479,15.80924 10.2488,17.43547 11.2782,21.47687 2.28717,8.97956 1.9914,17.03087 -0.94874,25.8264 -2.92032,8.73625 -7.93007,15.89887 -14.91327,21.32206 -3.47331,2.69739 -9.74609,6.42377 -12.23703,7.26946 -2.66666,0.90537 -8.21674,1.38551 -19.43093,1.68098 -8.82308,0.23247 -9.79456,0.30922 -5.94449,0.46964 2.53121,0.10547 -90.71475,0.19176 -207.21324,0.19176 -116.49849,0 -211.936334,-0.10333 -212.084098,-0.22963 z"/>
	<path style="fill:#666666;fill-opacity:1"
		d="m 51.111434,439.72893 c 5.537006,-0.0599 14.59756,-0.0599 20.134566,0 5.537006,0.0599 1.006728,0.10889 -10.067283,0.10889 -11.074011,0 -15.604289,-0.049 -10.067283,-0.10889 z"/>
</svg>