<?xml version="1.0" encoding="utf-8"?>
<!-- Svg Vector Icons : http://www.onlinewebfonts.com/icon -->
<!DOCTYPE svg PUBLIC "-//W3C//DTD SVG 1.1//EN" "http://www.w3.org/Graphics/SVG/1.1/DTD/svg11.dtd">
<svg version="1.1" xmlns="http://www.w3.org/2000/svg" xmlns:xlink="http://www.w3.org/1999/xlink" x="0px" y="0px" viewBox="0 0 1000 1000" enable-background="new 0 0 1000 1000" xml:space="preserve">
<metadata> Svg Vector Icons : http://www.onlinewebfonts.com/icon </metadata>
<g><g transform="translate(0.000000,511.000000) scale(0.100000,-0.100000)"><path d="M623.6,3911.3c-59.4-19.2-138.1-53.7-176.4-76.7c-107.4-67.1-255.1-241.6-303-362.5L100,3362.8V793v-2569.9l61.4-128.5c117-247.4,320.3-389.3,638.6-443c90.1-15.4,1578.4-331.8,3310.1-701.9c1729.9-370.1,3177.8-673.1,3216.2-673.1c203.3,0,435.3,94,548.5,224.4c136.2,153.4,155.3,235.9,155.3,686.6v391.2l648.2,5.8c631,5.8,648.2,7.7,761.4,51.8c159.2,63.3,351,255.1,414.2,414.3l46,115.1V764.2v2598.6l-46,115.1c-63.3,159.2-255.1,351-414.2,414.2l-115.1,46l-4295.9,3.8C924.7,3945.9,727.1,3943.9,623.6,3911.3z M9251.8,3290c32.6-32.6,34.5-159.2,34.5-2525.8c0-2366.6-1.9-2493.2-34.5-2525.8c-30.7-32.6-82.5-34.5-623.3-34.5h-588.8v987.7v987.7l349,5.7l349,3.8l38.4,51.8c53.7,65.2,49.9,126.6-5.8,191.8l-46,53.7l-347.1,5.8l-345.2,5.8l-5.8,713.4c-5.8,694.2-7.7,715.3-49.9,817c-94,222.5-268.5,412.3-446.8,491c-59.5,24.9-5.8,26.8,563.8,28.8h629l46,47.9c63.3,61.4,63.3,149.6,0,211l-46,47.9H7353.2H5983.8l-1070.1,230.1c-588.8,124.7-1074,234-1079.7,239.7c-5.8,5.7,1202.5,7.7,2686.8,5.7C9081.1,3324.5,9219.2,3322.6,9251.8,3290z M4069.9,2634.1C5832.3,2258.2,7286,1943.7,7301.4,1936c15.3-7.7,47.9-47.9,71-90.1l44.1-74.8v-2428v-2429.8l-47.9-7.7c-36.4-7.7-6367.1,1325.2-6568.5,1380.8c-24.9,7.7-57.5,36.4-71,61.4c-19.2,38.4-23,550.4-19.2,2475.9c3.8,2631.2-1.9,2491.2,107.4,2491.2C844.1,3314.9,2307.4,3008.1,4069.9,2634.1z"/><path d="M5983.8,603.1c-272.3-88.2-483.3-393.2-554.2-799.7c-92.1-535.1,122.7-1098.9,489-1277.2c149.6-74.8,333.7-74.8,483.3,0c209,101.6,375.9,331.8,462.2,640.5c53.7,195.6,57.5,546.6,7.7,744.1c-76.7,301.1-260.8,563.8-462.2,661.6C6298.4,626.1,6098.9,641.5,5983.8,603.1z M6332.9,256c249.3-187.9,345.2-721.1,201.4-1106.6c-222.5-596.4-717.3-435.3-809.3,262.7c-17.2,124.7-15.3,187.9,9.6,333.7C5811.2,208.1,6089.3,443.9,6332.9,256z"/></g></g>
</svg>